<svg width="690.448" height="128.638" viewBox="0 0 182.681 34.036" xmlns="http://www.w3.org/2000/svg"><g style="display:inline;fill:#fff;fill-opacity:1;stroke-width:1.25"><g style="fill:#c6c3c8;fill-opacity:1;stroke:#003;stroke-width:1.25;stroke-opacity:.933333"><path class="st0" d="M128.157 171.543h8.53v71.11h37.93v8.53h-46.46zM225.817 242.653c5.06 0 7.58-2.47 7.58-7.4v-63.71h8.53v63.71c0 10.62-5.37 15.93-16.12 15.93h-28.44c-10.75 0-16.12-5.37-16.12-16.12v-63.52h8.53v63.52c0 5.06 2.53 7.59 7.59 7.59zM259.947 187.093v64.09h-8.53v-79.64h7.59l44.56 64.66v-64.66h8.53v79.64h-7.58zM343.197 223.693h25.5l-15.46-39.73-26.26 67.22h-9.2l31.67-79.64h7.68l31.86 79.64h-9.29l-7.58-18.96h-32.33zM469.577 242.653v8.53h-35.08c-10.75 0-16.12-5.37-16.12-16.12v-47.41c0-10.75 5.37-16.12 16.12-16.12h35.08v8.53h-35.08c-5.06 0-7.59 2.53-7.59 7.58v47.41c0 5.06 2.53 7.59 7.59 7.59h35.08zM478.497 171.543h8.53v71.11h37.93v8.53h-46.46zM553.207 223.693h25.5l-15.46-39.73-26.26 67.22h-9.2l31.67-79.64h7.68l31.86 79.64h-9.29l-7.58-18.96h-32.33zM649.247 204.723c10.75 0 16.12 5.37 16.12 16.12v14.41c0 10.62-5.37 15.93-16.12 15.93h-39.82v-8.53h39.82c5.06 0 7.58-2.47 7.58-7.4v-14.41c0-5.06-2.53-7.58-7.58-7.58h-28.44c-10.75 0-16.12-5.37-16.12-16.12v-9.48c0-10.75 5.37-16.12 16.12-16.12h39.82v8.53h-39.82c-5.06 0-7.59 2.53-7.59 7.58v9.48c0 5.06 2.53 7.58 7.59 7.58h28.44zM719.407 204.723c10.75 0 16.12 5.37 16.12 16.12v14.41c0 10.62-5.37 15.93-16.12 15.93h-39.82v-8.53h39.82c5.06 0 7.58-2.47 7.58-7.4v-14.41c0-5.06-2.53-7.58-7.58-7.58h-28.44c-10.75 0-16.12-5.37-16.12-16.12v-9.48c0-10.75 5.37-16.12 16.12-16.12h39.82v8.53h-39.82c-5.06 0-7.59 2.53-7.59 7.58v9.48c0 5.06 2.53 7.58 7.59 7.58h28.44zM745.007 171.543h8.53v79.64h-8.53zM814.227 242.653v8.53h-35.08c-10.75 0-16.12-5.37-16.12-16.12v-47.41c0-10.75 5.37-16.12 16.12-16.12h35.08v8.53h-35.08c-5.06 0-7.59 2.53-7.59 7.58v47.41c0 5.06 2.53 7.59 7.59 7.59h35.08z" style="fill:#c6c3c8;fill-opacity:1;stroke:#003;stroke-width:1.25;stroke-opacity:.933333" transform="matrix(.21167 0 0 .21167 9.602 -32.63)"/></g><g style="fill:#c6c3c8;fill-opacity:1;stroke:#003;stroke-width:1.25;stroke-opacity:.933333"><path class="st0" d="M224.86 863.6h-38.09v-33.61h35.84c1.64 0 3.14.41 4.5 1.22 1.36.81 2.44 1.89 3.25 3.25s1.21 2.86 1.21 4.51v1.1c0 2.2-.7 4.13-2.11 5.77 1.31.81 2.37 1.89 3.16 3.23a8.63 8.63 0 0 1 1.2 4.45v1.13c0 1.64-.4 3.14-1.21 4.49a9.364 9.364 0 0 1-3.25 3.25c-1.36.82-2.86 1.21-4.5 1.21zm-2.25-19.03c1.27 0 2.33-.43 3.19-1.3.86-.87 1.29-1.93 1.29-3.2v-1.1c0-1.27-.43-2.33-1.29-3.19-.86-.86-1.92-1.29-3.19-1.29h-31.36v10.08zm2.25 14.55c1.25 0 2.31-.43 3.18-1.3.87-.87 1.3-1.93 1.3-3.18v-1.13c0-1.25-.43-2.31-1.3-3.18-.87-.87-1.93-1.3-3.18-1.3h-33.61v10.08h33.61zM287.34 863.6h-26.88c-1.64 0-3.14-.41-4.49-1.22a9.364 9.364 0 0 1-3.25-3.25c-.82-1.36-1.22-2.85-1.22-4.49v-24.66h4.48v24.66c0 1.25.43 2.31 1.29 3.18.86.87 1.92 1.3 3.19 1.3h26.88c1.27 0 2.33-.43 3.19-1.3.86-.87 1.29-1.93 1.29-3.18v-24.66h4.48v24.66c0 1.64-.4 3.14-1.21 4.49a9.364 9.364 0 0 1-3.25 3.25c-1.36.82-2.86 1.22-4.5 1.22zM358.94 863.6h-4.76l-5.95-11.2h-28.5v11.2h-4.48v-33.61h34.71c1.64 0 3.14.41 4.5 1.22 1.36.81 2.44 1.89 3.25 3.25s1.21 2.86 1.21 4.51v4.48c0 1.97-.57 3.72-1.72 5.26a9.188 9.188 0 0 1-4.44 3.25zm-8.97-15.68c1.27 0 2.33-.43 3.2-1.3.87-.87 1.3-1.93 1.3-3.18v-4.48c0-1.27-.43-2.33-1.3-3.19-.87-.86-1.93-1.29-3.2-1.29h-30.23v13.43h30.23zM421.69 863.6h-4.48l-35.84-27.89v27.89h-4.48v-33.61h4.48l35.84 27.89v-27.89h4.48zM471.49 863.6h-4.48v-33.61h34.71c1.66 0 3.16.41 4.51 1.22 1.35.81 2.43 1.89 3.25 3.25.82 1.36 1.22 2.86 1.22 4.51v6.7c0 1.64-.41 3.14-1.22 4.5a9.227 9.227 0 0 1-3.25 3.26c-1.36.81-2.86 1.22-4.51 1.22h-30.23zm30.23-13.43c1.27 0 2.33-.43 3.2-1.3.87-.87 1.3-1.93 1.3-3.2v-6.7c0-1.27-.43-2.33-1.3-3.19-.87-.86-1.93-1.29-3.2-1.29h-30.23v15.68zM572.3 863.6h-4.76l-5.95-11.2h-28.5v11.2h-4.48v-33.61h34.71c1.64 0 3.14.41 4.5 1.22 1.36.81 2.44 1.89 3.25 3.25s1.21 2.86 1.21 4.51v4.48c0 1.97-.57 3.72-1.72 5.26a9.188 9.188 0 0 1-4.44 3.25zm-8.98-15.68c1.27 0 2.33-.43 3.2-1.3.87-.87 1.3-1.93 1.3-3.18v-4.48c0-1.27-.43-2.33-1.3-3.19-.87-.86-1.93-1.29-3.2-1.29h-30.23v13.43h30.23zM628.08 863.6h-29.13c-1.64 0-3.14-.41-4.49-1.22a9.364 9.364 0 0 1-3.25-3.25c-.82-1.36-1.22-2.85-1.22-4.49v-15.68c0-1.66.41-3.16 1.22-4.51a9.364 9.364 0 0 1 3.25-3.25c1.36-.82 2.85-1.22 4.49-1.22h29.13c1.64 0 3.14.41 4.5 1.22 1.36.81 2.44 1.89 3.25 3.25s1.21 2.86 1.21 4.51v15.68c0 1.64-.4 3.14-1.21 4.49a9.364 9.364 0 0 1-3.25 3.25c-1.36.82-2.86 1.22-4.5 1.22zm0-4.48c1.27 0 2.33-.43 3.19-1.3.86-.87 1.29-1.93 1.29-3.18v-15.68c0-1.27-.43-2.33-1.29-3.19-.86-.86-1.92-1.29-3.19-1.29h-29.13c-1.25 0-2.31.43-3.18 1.29-.87.86-1.3 1.92-1.3 3.19v15.68c0 1.25.43 2.31 1.3 3.18.87.87 1.93 1.3 3.18 1.3zM684.7 863.6h-22.4c-1.64 0-3.14-.41-4.49-1.22a9.364 9.364 0 0 1-3.25-3.25c-.82-1.36-1.22-2.85-1.22-4.49h4.48c0 1.25.43 2.31 1.3 3.18.87.87 1.93 1.3 3.18 1.3h22.41c1.25 0 2.31-.43 3.18-1.3.87-.87 1.3-1.93 1.3-3.18v-24.66h4.48v24.66c0 1.64-.4 3.14-1.21 4.49a9.364 9.364 0 0 1-3.25 3.25c-1.36.82-2.87 1.22-4.51 1.22zM754.08 863.6h-41.44v-33.61h41.44v4.5h-36.96v10.08h32.48v4.48h-32.48v10.08h36.96zM808.1 863.6h-26.88c-1.64 0-3.14-.41-4.49-1.22a9.364 9.364 0 0 1-3.25-3.25c-.82-1.36-1.22-2.85-1.22-4.49v-15.68c0-1.66.41-3.16 1.22-4.51a9.364 9.364 0 0 1 3.25-3.25c1.36-.82 2.85-1.22 4.49-1.22h26.88c1.64 0 3.14.41 4.5 1.22 1.36.81 2.44 1.89 3.25 3.25s1.21 2.86 1.21 4.51h-4.48c0-1.27-.43-2.33-1.29-3.19-.86-.86-1.92-1.29-3.19-1.29h-26.88c-1.25 0-2.31.43-3.18 1.29-.87.86-1.3 1.92-1.3 3.19v15.68c0 1.25.43 2.31 1.3 3.18.87.87 1.93 1.3 3.18 1.3h26.88c1.27 0 2.33-.43 3.19-1.3.86-.87 1.29-1.93 1.29-3.18h4.48c0 1.64-.4 3.14-1.21 4.49a9.364 9.364 0 0 1-3.25 3.25c-1.36.82-2.86 1.22-4.5 1.22zM858.26 863.6h-4.48v-29.11h-20.16v-4.5h44.79v4.5h-20.16v29.11z" style="fill:#c6c3c8;fill-opacity:1;stroke:#003;stroke-width:1.25;stroke-opacity:.933333" transform="matrix(.21167 0 0 .21167 -3.25 -151.502)"/></g></g><g style="display:inline;stroke-width:4.1247" transform="matrix(.06407 0 0 .06422 -17.63 -10.789)"><circle style="display:inline;opacity:.93;fill:#003;fill-opacity:1;fill-rule:evenodd;stroke:#d55500;stroke-width:1.09304;stroke-linecap:round;stroke-linejoin:round;stroke-opacity:.0235294" cx="540.149" cy="432.972" r="264.434"/><g style="stroke-width:4.1247"><circle class="st2" cx="336.15" cy="345.5" r="6.07" style="fill:#fbce02;stroke-width:4.1247"/><circle class="st2" cx="729.88" cy="336.35" r="6.07" style="fill:#fbce02;stroke-width:4.1247"/><circle class="st2" cx="537.169" cy="649.267" r="6.07" style="fill:#fbce02;fill-opacity:1;stroke-width:4.1247"/></g><path class="st1" d="M539.583 696.405c-70.513 0-136.82-27.467-186.677-77.324-49.87-49.87-77.323-116.163-77.323-186.676 0-70.512 27.467-136.82 77.323-186.676 49.857-49.856 116.164-77.324 186.677-77.324 70.512 0 136.82 27.468 186.676 77.324 49.856 49.871 77.324 116.164 77.324 186.676 0 70.513-27.468 136.82-77.324 186.676-49.871 49.857-116.164 77.324-186.676 77.324zm0-515.177c-138.493 0-251.177 112.67-251.177 251.177 0 138.508 112.669 251.177 251.177 251.177 138.507 0 251.176-112.669 251.176-251.177 0-138.508-112.684-251.177-251.176-251.177z" style="fill:#2f57fc;fill-opacity:1;stroke-width:4.1247"/><g style="stroke-width:4.1247"><g style="fill:#fff;fill-opacity:1;stroke-width:4.1247"><path class="st0" d="M534.58 307.88c71.38.05 129.49 58.32 129.3 129.64-.19 71.25-58.25 129.15-129.46 129.11-71.36-.04-129.46-58.31-129.29-129.65.17-71.24 58.24-129.15 129.45-129.1zm74.47 215.83c-.78-.67-1.24-1.09-1.73-1.48-12.67-10.08-15.67-27.24-7.09-40.53 8.58-13.3 25.46-17.8 39.78-10.37 2.59 1.34 3.32.76 4.03-1.74 4.39-15.44 5.83-31.12 3.68-47.04-8.66-64.13-67.47-107.94-131.4-97.97C443.2 336 399.54 415.35 430 482.74c18.75 41.49 51.75 64.54 97.15 68.29 30.67 2.53 57.88-7.35 81.9-27.32z" style="fill:#fff;fill-opacity:1;stroke-width:4.1247" transform="translate(5.078 -4.85)"/><path class="st0" d="M519.27 399.03c.08 12.66-10.19 23-22.84 23-12.5-.01-22.73-10.17-22.8-22.65-.07-12.68 10.18-23 22.84-22.99 12.5 0 22.72 10.15 22.8 22.64zM458.35 422.05c8.38-.02 15.23 6.8 15.25 15.17.02 8.37-6.81 15.23-15.17 15.25-8.37.02-15.23-6.8-15.25-15.17-.01-8.39 6.79-15.23 15.17-15.25zM564.93 513.22c.07 8.37-6.71 15.29-15.07 15.35-8.38.07-15.28-6.71-15.35-15.07-.07-8.39 6.7-15.28 15.07-15.35 8.38-.07 15.28 6.71 15.35 15.07zM610.43 399.23c4.04-.1 7.56 3.17 7.76 7.21.21 4.18-3.2 7.85-7.4 7.95-4.2.1-7.76-3.38-7.76-7.59 0-4.06 3.34-7.47 7.4-7.57zM519.14 444.9c4.2-.08 7.75 3.43 7.73 7.63-.03 4.05-3.39 7.46-7.44 7.54-4.2.08-7.74-3.42-7.72-7.63.02-4.07 3.37-7.47 7.43-7.54zM564.92 353.51c.01 4.2-3.56 7.7-7.75 7.61-4.05-.09-7.4-3.5-7.41-7.56-.02-4.21 3.54-7.7 7.74-7.6 4.05.09 7.4 3.5 7.42 7.55z" style="fill:#fff;fill-opacity:1;stroke-width:4.1247" transform="translate(5.078 -4.85)"/></g></g><g style="display:inline;stroke-width:1.8332"><g style="stroke-width:7.33281"><path style="fill:#fbce02;stroke-width:7.33281" d="M-19.874 89.527c-.15-.182-.734-1.402-1.298-2.712-1.945-4.511-5.253-8.475-9.382-11.24-6.92-4.636-15.236-5.44-24.66-2.382-1.724.56-3.315.948-3.535.864-1.305-.501 1.001-5.993 5.07-12.076C-44.9 48.86-32.744 36.37-21.338 28.754c3.442-2.298 8.733-5.213 8.993-4.954.073.073-.407 1.602-1.067 3.396-2.655 7.218-4.59 15.301-3.662 15.301.116 0 .664-.595 1.219-1.322 3.63-4.76 21.605-18.946 33.778-26.658 2.302-1.459 6.786-4.034 7.023-4.034.053 0-1.122 1.22-2.612 2.713C14.72 20.822 7.511 31.823-.853 48.583c-5.737 11.495-10.296 22.041-14.754 34.13-1.1 2.984-2.161 5.738-2.358 6.12-.505.98-1.405 1.306-1.909.694z" transform="matrix(.56176 .02883 .02883 -.56176 397.67 562.472)"/><path style="fill:#fea607;stroke-width:7.33281" d="M-50.535 125.714c-5.48-.995-11.627-4.154-14.818-7.615-3.356-3.641-6.2-9.68-7.41-15.735-.692-3.463-.626-11.582.128-15.681 2.25-12.234 8.029-24.492 17.331-36.758 3.34-4.403 5.802-7.23 10.365-11.892 8.687-8.878 17.15-15.652 28.05-22.456C1.282 4.237 17.169-3.263 29.756-6.444c5.737-1.45 7.736-1.711 13.152-1.72 4.739-.006 5.108.03 6.423.624 1.581.715 2.706 1.887 2.706 2.82 0 .758-1.455 2.29-2.852 3.002-1.558.795-7.072 5.028-10.13 7.777-14.33 12.878-29.047 36.25-40.02 63.558-.935 2.328-3.393 8.758-5.46 14.288-6.242 16.692-8.437 21.653-11.943 26.987-4.191 6.377-10.432 11.137-17.98 13.716-4.195 1.433-9.921 1.88-14.186 1.106zm10.099-6.058c6.552-2.244 11.237-7.317 12.98-14.056.679-2.624.632-7.5-.098-10.222-1.84-6.858-7.03-12.073-13.956-14.023-1.643-.463-2.794-.592-5.276-.593-3.925-.001-5.999.473-9.393 2.146-2.082 1.027-2.9 1.627-4.767 3.5-2.534 2.54-3.91 4.71-4.956 7.815-.658 1.955-.713 2.45-.719 6.483-.005 4.11.038 4.49.736 6.482 1.926 5.502 5.833 9.733 10.977 11.888 2.949 1.235 4.36 1.463 8.519 1.381 3.371-.066 4.093-.163 5.953-.8zm21.684-29.963c.605-.232.895-.876 3.145-6.98 4.458-12.089 9.017-22.635 14.754-34.13 8.364-16.76 15.573-27.76 23.186-35.387 1.49-1.492 2.665-2.713 2.612-2.713-.237 0-4.72 2.575-7.023 4.034-12.173 7.712-30.148 21.897-33.778 26.658-.555.727-1.103 1.322-1.219 1.322-.928 0 1.007-8.083 3.662-15.301.66-1.794 1.14-3.323 1.067-3.396-.26-.26-5.551 2.656-8.993 4.954-11.406 7.616-23.562 20.106-32.34 33.227-4.069 6.083-6.375 11.575-5.07 12.076.22.084 1.81-.305 3.535-.864 9.424-3.058 17.74-2.254 24.66 2.382 4.129 2.765 7.437 6.729 9.382 11.24 1.339 3.106 1.457 3.248 2.42 2.878z" transform="matrix(.56176 .02883 .02883 -.56176 397.67 562.472)"/><path style="fill:#e47545;stroke-width:7.33281" d="m-61.215 114.795-1.446-1.522 1.521 1.446c1.413 1.344 1.643 1.597 1.446 1.597-.041 0-.726-.685-1.521-1.521zm26.996 1.421c0-.055.209-.263.463-.463.42-.33.43-.32.1.1-.345.44-.563.58-.563.363zm2.117-2.117c0-.054.208-.263.463-.463.42-.329.43-.32.1.1-.346.441-.563.581-.563.363zM-62.794 88.17c0-.055.209-.263.463-.463.42-.329.43-.32.1.1-.345.44-.563.581-.563.363zm2.646-2.646c0-.055.209-.263.463-.463.42-.329.43-.32.1.1-.345.441-.563.581-.563.363zm25.631-.627c-.329-.42-.32-.43.1-.1.255.2.463.408.463.463 0 .218-.217.077-.563-.363z" transform="matrix(.56176 .02883 .02883 -.56176 397.67 562.472)"/><path style="fill:#fe6b27;stroke-width:7.33281" d="M-51.468 120.154c-6.777-1.708-12.093-6.587-14.416-13.23-.69-1.971-.74-2.4-.734-6.218.005-3.743.068-4.287.718-6.218 1.061-3.156 2.413-5.269 5.086-7.95 2.008-2.013 2.784-2.588 4.9-3.63 3.312-1.632 5.485-2.142 9.128-2.141 3.475.001 6.06.632 9.127 2.227 4.91 2.555 8.662 7.252 10.102 12.649.718 2.69.763 7.107.098 9.693-1.739 6.76-6.644 12.064-13.242 14.318-1.82.622-2.617.735-5.688.802-2.464.054-4.04-.04-5.08-.302z" transform="matrix(.56176 .02883 .02883 -.56176 397.67 562.472)"/></g></g><g style="display:inline;stroke-width:1.8332"><g style="stroke-width:7.33281"><path style="fill:#fbce02;stroke-width:7.33281" d="M-19.874 89.527c-.15-.182-.734-1.402-1.298-2.712-1.945-4.511-5.253-8.475-9.382-11.24-6.92-4.636-15.236-5.44-24.66-2.382-1.724.56-3.315.948-3.535.864-1.305-.501 1.001-5.993 5.07-12.076C-44.9 48.86-32.744 36.37-21.338 28.754c3.442-2.298 8.733-5.213 8.993-4.954.073.073-.407 1.602-1.067 3.396-2.655 7.218-4.59 15.301-3.662 15.301.116 0 .664-.595 1.219-1.322 3.63-4.76 21.605-18.946 33.778-26.658 2.302-1.459 6.786-4.034 7.023-4.034.053 0-1.122 1.22-2.612 2.713C14.72 20.822 7.511 31.823-.853 48.583c-5.737 11.495-10.296 22.041-14.754 34.13-1.1 2.984-2.161 5.738-2.358 6.12-.505.98-1.405 1.306-1.909.694z" transform="scale(-.5625 .5625) rotate(-63.535 88.439 1464.139)"/><path style="fill:#fea607;stroke-width:7.33281" d="M-50.535 125.714c-5.48-.995-11.627-4.154-14.818-7.615-3.356-3.641-6.2-9.68-7.41-15.735-.692-3.463-.626-11.582.128-15.681 2.25-12.234 8.029-24.492 17.331-36.758 3.34-4.403 5.802-7.23 10.365-11.892 8.687-8.878 17.15-15.652 28.05-22.456C1.282 4.237 17.169-3.263 29.756-6.444c5.737-1.45 7.736-1.711 13.152-1.72 4.739-.006 5.108.03 6.423.624 1.581.715 2.706 1.887 2.706 2.82 0 .758-1.455 2.29-2.852 3.002-1.558.795-7.072 5.028-10.13 7.777-14.33 12.878-29.047 36.25-40.02 63.558-.935 2.328-3.393 8.758-5.46 14.288-6.242 16.692-8.437 21.653-11.943 26.987-4.191 6.377-10.432 11.137-17.98 13.716-4.195 1.433-9.921 1.88-14.186 1.106zm10.099-6.058c6.552-2.244 11.237-7.317 12.98-14.056.679-2.624.632-7.5-.098-10.222-1.84-6.858-7.03-12.073-13.956-14.023-1.643-.463-2.794-.592-5.276-.593-3.925-.001-5.999.473-9.393 2.146-2.082 1.027-2.9 1.627-4.767 3.5-2.534 2.54-3.91 4.71-4.956 7.815-.658 1.955-.713 2.45-.719 6.483-.005 4.11.038 4.49.736 6.482 1.926 5.502 5.833 9.733 10.977 11.888 2.949 1.235 4.36 1.463 8.519 1.381 3.371-.066 4.093-.163 5.953-.8zm21.684-29.963c.605-.232.895-.876 3.145-6.98 4.458-12.089 9.017-22.635 14.754-34.13 8.364-16.76 15.573-27.76 23.186-35.387 1.49-1.492 2.665-2.713 2.612-2.713-.237 0-4.72 2.575-7.023 4.034-12.173 7.712-30.148 21.897-33.778 26.658-.555.727-1.103 1.322-1.219 1.322-.928 0 1.007-8.083 3.662-15.301.66-1.794 1.14-3.323 1.067-3.396-.26-.26-5.551 2.656-8.993 4.954-11.406 7.616-23.562 20.106-32.34 33.227-4.069 6.083-6.375 11.575-5.07 12.076.22.084 1.81-.305 3.535-.864 9.424-3.058 17.74-2.254 24.66 2.382 4.129 2.765 7.437 6.729 9.382 11.24 1.339 3.106 1.457 3.248 2.42 2.878z" transform="scale(-.5625 .5625) rotate(-63.535 88.439 1464.139)"/><path style="fill:#e47545;stroke-width:7.33281" d="m-61.215 114.795-1.446-1.522 1.521 1.446c1.413 1.344 1.643 1.597 1.446 1.597-.041 0-.726-.685-1.521-1.521zm26.996 1.421c0-.055.209-.263.463-.463.42-.33.43-.32.1.1-.345.44-.563.58-.563.363zm2.117-2.117c0-.054.208-.263.463-.463.42-.329.43-.32.1.1-.346.441-.563.581-.563.363zM-62.794 88.17c0-.055.209-.263.463-.463.42-.329.43-.32.1.1-.345.44-.563.581-.563.363zm2.646-2.646c0-.055.209-.263.463-.463.42-.329.43-.32.1.1-.345.441-.563.581-.563.363zm25.631-.627c-.329-.42-.32-.43.1-.1.255.2.463.408.463.463 0 .218-.217.077-.563-.363z" transform="scale(-.5625 .5625) rotate(-63.535 88.439 1464.139)"/><path style="fill:#fe6b27;stroke-width:7.33281" d="M-51.468 120.154c-6.777-1.708-12.093-6.587-14.416-13.23-.69-1.971-.74-2.4-.734-6.218.005-3.743.068-4.287.718-6.218 1.061-3.156 2.413-5.269 5.086-7.95 2.008-2.013 2.784-2.588 4.9-3.63 3.312-1.632 5.485-2.142 9.128-2.141 3.475.001 6.06.632 9.127 2.227 4.91 2.555 8.662 7.252 10.102 12.649.718 2.69.763 7.107.098 9.693-1.739 6.76-6.644 12.064-13.242 14.318-1.82.622-2.617.735-5.688.802-2.464.054-4.04-.04-5.08-.302z" transform="scale(-.5625 .5625) rotate(-63.535 88.439 1464.139)"/></g></g><g style="stroke-width:1.8332"><g style="stroke-width:7.33281"><path style="fill:#fbce02;stroke-width:7.33281" d="M-19.874 89.527c-.15-.182-.734-1.402-1.298-2.712-1.945-4.511-5.253-8.475-9.382-11.24-6.92-4.636-15.236-5.44-24.66-2.382-1.724.56-3.315.948-3.535.864-1.305-.501 1.001-5.993 5.07-12.076C-44.9 48.86-32.744 36.37-21.338 28.754c3.442-2.298 8.733-5.213 8.993-4.954.073.073-.407 1.602-1.067 3.396-2.655 7.218-4.59 15.301-3.662 15.301.116 0 .664-.595 1.219-1.322 3.63-4.76 21.605-18.946 33.778-26.658 2.302-1.459 6.786-4.034 7.023-4.034.053 0-1.122 1.22-2.612 2.713C14.72 20.822 7.511 31.823-.853 48.583c-5.737 11.495-10.296 22.041-14.754 34.13-1.1 2.984-2.161 5.738-2.358 6.12-.505.98-1.405 1.306-1.909.694z" transform="matrix(-.27333 .49163 .49163 .27333 506.07 255.81)"/><path style="fill:#fea607;stroke-width:7.33281" d="M-50.535 125.714c-5.48-.995-11.627-4.154-14.818-7.615-3.356-3.641-6.2-9.68-7.41-15.735-.692-3.463-.626-11.582.128-15.681 2.25-12.234 8.029-24.492 17.331-36.758 3.34-4.403 5.802-7.23 10.365-11.892 8.687-8.878 17.15-15.652 28.05-22.456C1.282 4.237 17.169-3.263 29.756-6.444c5.737-1.45 7.736-1.711 13.152-1.72 4.739-.006 5.108.03 6.423.624 1.581.715 2.706 1.887 2.706 2.82 0 .758-1.455 2.29-2.852 3.002-1.558.795-7.072 5.028-10.13 7.777-14.33 12.878-29.047 36.25-40.02 63.558-.935 2.328-3.393 8.758-5.46 14.288-6.242 16.692-8.437 21.653-11.943 26.987-4.191 6.377-10.432 11.137-17.98 13.716-4.195 1.433-9.921 1.88-14.186 1.106zm10.099-6.058c6.552-2.244 11.237-7.317 12.98-14.056.679-2.624.632-7.5-.098-10.222-1.84-6.858-7.03-12.073-13.956-14.023-1.643-.463-2.794-.592-5.276-.593-3.925-.001-5.999.473-9.393 2.146-2.082 1.027-2.9 1.627-4.767 3.5-2.534 2.54-3.91 4.71-4.956 7.815-.658 1.955-.713 2.45-.719 6.483-.005 4.11.038 4.49.736 6.482 1.926 5.502 5.833 9.733 10.977 11.888 2.949 1.235 4.36 1.463 8.519 1.381 3.371-.066 4.093-.163 5.953-.8zm21.684-29.963c.605-.232.895-.876 3.145-6.98 4.458-12.089 9.017-22.635 14.754-34.13 8.364-16.76 15.573-27.76 23.186-35.387 1.49-1.492 2.665-2.713 2.612-2.713-.237 0-4.72 2.575-7.023 4.034-12.173 7.712-30.148 21.897-33.778 26.658-.555.727-1.103 1.322-1.219 1.322-.928 0 1.007-8.083 3.662-15.301.66-1.794 1.14-3.323 1.067-3.396-.26-.26-5.551 2.656-8.993 4.954-11.406 7.616-23.562 20.106-32.34 33.227-4.069 6.083-6.375 11.575-5.07 12.076.22.084 1.81-.305 3.535-.864 9.424-3.058 17.74-2.254 24.66 2.382 4.129 2.765 7.437 6.729 9.382 11.24 1.339 3.106 1.457 3.248 2.42 2.878z" transform="matrix(-.27333 .49163 .49163 .27333 506.07 255.81)"/><path style="fill:#e47545;stroke-width:7.33281" d="m-61.215 114.795-1.446-1.522 1.521 1.446c1.413 1.344 1.643 1.597 1.446 1.597-.041 0-.726-.685-1.521-1.521zm26.996 1.421c0-.055.209-.263.463-.463.42-.33.43-.32.1.1-.345.44-.563.58-.563.363zm2.117-2.117c0-.054.208-.263.463-.463.42-.329.43-.32.1.1-.346.441-.563.581-.563.363zM-62.794 88.17c0-.055.209-.263.463-.463.42-.329.43-.32.1.1-.345.44-.563.581-.563.363zm2.646-2.646c0-.055.209-.263.463-.463.42-.329.43-.32.1.1-.345.441-.563.581-.563.363zm25.631-.627c-.329-.42-.32-.43.1-.1.255.2.463.408.463.463 0 .218-.217.077-.563-.363z" transform="matrix(-.27333 .49163 .49163 .27333 506.07 255.81)"/><path style="fill:#fe6b27;stroke-width:7.33281" d="M-51.468 120.154c-6.777-1.708-12.093-6.587-14.416-13.23-.69-1.971-.74-2.4-.734-6.218.005-3.743.068-4.287.718-6.218 1.061-3.156 2.413-5.269 5.086-7.95 2.008-2.013 2.784-2.588 4.9-3.63 3.312-1.632 5.485-2.142 9.128-2.141 3.475.001 6.06.632 9.127 2.227 4.91 2.555 8.662 7.252 10.102 12.649.718 2.69.763 7.107.098 9.693-1.739 6.76-6.644 12.064-13.242 14.318-1.82.622-2.617.735-5.688.802-2.464.054-4.04-.04-5.08-.302z" transform="matrix(-.27333 .49163 .49163 .27333 506.07 255.81)"/></g></g></g></svg>